PathFileType	4	(X/Y/Z)	/Users/itak/Documents/Research/Walk-IL/dataset/trc/00353_00011.trc
DataRate	CameraRate	NumFrames	NumMarkers	Units	OrigDataRate	OrigDataStartFrame	OrigNumFrames
100.000000	100.000000	4	55	mm	100.000000	0	674
Frame#	Time	RPSI			LPSI			L3			STRN			T10			C7			CLAV			RBAK			LBAK			LSHO			LUPA			LAEL			LAOL			LWTS			LWPS			LFRA			LIFD			LHPS			LHTS			RSHO			RUPA			RAEL			RAOL			RWTS			RWPS			RFRA			RIFD			RHTS			RHPS			RBHD			LFHD			RFHD			LBHD			LHIP			RASI			LASI			LKNE			LTHI			LANK			LTIP			LTOE			LMT1			LMT5			LHEE			RKNE			RANK			RTIP			RTOE			RMT1			RMT5			RHEE			RHIP			RTHI			*53			*54			
		X1	Y1	Z1	X2	Y2	Z2	X3	Y3	Z3	X4	Y4	Z4	X5	Y5	Z5	X6	Y6	Z6	X7	Y7	Z7	X8	Y8	Z8	X9	Y9	Z9	X10	Y10	Z10	X11	Y11	Z11	X12	Y12	Z12	X13	Y13	Z13	X14	Y14	Z14	X15	Y15	Z15	X16	Y16	Z16	X17	Y17	Z17	X18	Y18	Z18	X19	Y19	Z19	X20	Y20	Z20	X21	Y21	Z21	X22	Y22	Z22	X23	Y23	Z23	X24	Y24	Z24	X25	Y25	Z25	X26	Y26	Z26	X27	Y27	Z27	X28	Y28	Z28	X29	Y29	Z29	X30	Y30	Z30	X31	Y31	Z31	X32	Y32	Z32	X33	Y33	Z33	X34	Y34	Z34	X35	Y35	Z35	X36	Y36	Z36	X37	Y37	Z37	X38	Y38	Z38	X39	Y39	Z39	X40	Y40	Z40	X41	Y41	Z41	X42	Y42	Z42	X43	Y43	Z43	X44	Y44	Z44	X45	Y45	Z45	X46	Y46	Z46	X47	Y47	Z47	X48	Y48	Z48	X49	Y49	Z49	X50	Y50	Z50	X51	Y51	Z51	X52	Y52	Z52	X53	Y53	Z53	X54	Y54	Z54	X55	Y55	Z55	

1	0	540.3482666015625	976.194091796875	850.0521240234375	543.2937622070312	974.9133911132812	978.344970703125	544.61962890625	1024.61767578125	908.444091796875	328.2452392578125	1223.403930664062	927.9150390625	563.1160278320312	1143.87646484375	918.79638671875	534.7117309570312	1394.144409179688	937.3826904296875	376.5168151855469	1347.642700195312	931.6375732421875	574.6202392578125	1252.871948242188	869.2196655273438	545.147705078125	1355.1875	1038.86767578125	462.3177185058594	1377.423706054688	1096.012939453125	473.3689880371094	1254.044067382812	1160.483764648438	445.0390625	1050.3798828125	1166.687255859375	504.4581298828125	1035.945922851562	1109.028686523438	338.2433471679688	813.035888671875	1120.470581054688	378.4623413085938	799.64013671875	1175.700073242188	425.3556518554688	946.8880615234375	1171.679809570312	311.1947326660156	665.9019165039062	1114.451782226562	378.3193664550781	728.3193359375	1166.610229492188	323.0042724609375	735.4036254882812	1136.408081054688	479.1769714355469	1386.062866210938	774.413818359375	486.8636779785156	1320.804565429688	710.9713134765625	462.6784057617188	1052.604370117188	676.0701904296875	504.1044311523438	1045.39453125	760.0126953125	341.0453491210938	831.4567260742188	729.06494140625	375.3533630371094	812.5730590820312	662.6840209960938	433.4624328613281	986.0360107421875	668.9893798828125	318.5940246582031	664.621337890625	736.4306030273438	306.9118347167969	732.1875	718.536865234375	355.1026306152344	729.4842529296875	667.7342529296875	502.3018798828125	1602.976196289062	858.4142456054688	331.624755859375	1624.827026367188	975.9024658203125	342.2651672363281	1626.3837890625	875.5940551757812	514.0469360351562	1594.288818359375	1002.7353515625	461.8197937011719	919.6548461914062	1086.079223632812	353.3519287109375	951.7981567382812	786.8355102539062	337.824951171875	945.0650024414062	1028.010498046875	438.6803588867188	467.1240539550781	1093.630737304688	424.6074829101562	601.9462280273438	1096.446533203125	500.1764526367188	40.79410934448242	1099.627807617188	473.9831237792969	251.7270812988281	1110.506225585938	289.7198181152344	44.26699447631836	1054.01708984375	353.49609375	36.49169540405273	1007.153747558594	375.4054565429688	38.5528450012207	1120.586059570312	526.4248046875	37.10430526733398	1029.001831054688	437.5303039550781	465.2845764160156	724.6744384765625	490.3952331542969	51.33383178710938	705.482177734375	432.2224426269531	348.3971252441406	723.4405517578125	300.9009399414062	43.19684600830078	766.0848999023438	360.1040649414062	37.50010681152344	803.504638671875	386.0275268554688	39.13450241088867	689.1215209960938	542.8796997070312	48.20755767822266	750.8535766601562	nan	nan	nan	nan	nan	nan	nan	nan	nan	nan	nan	nan	
2	0.01	540.306396484375	976.2020874023438	850.0425415039062	543.233154296875	974.917724609375	978.3290405273438	544.566650390625	1024.603271484375	908.4115600585938	328.2169799804688	1223.409301757812	927.9307250976562	563.0581665039062	1143.856323242188	918.799072265625	534.705810546875	1394.138427734375	937.3775634765625	376.5127563476562	1347.645751953125	931.642822265625	574.5784912109375	1252.848388671875	869.1983642578125	545.1593627929688	1355.179565429688	1038.850952148438	462.3342895507812	1377.418212890625	1096.009643554688	473.3970642089844	1254.05517578125	1160.48046875	445.0494689941406	1050.384399414062	1166.693725585938	504.4412231445312	1035.930053710938	1109.000854492188	338.1891479492188	813.0849609375	1120.559814453125	378.4703063964844	799.6422729492188	1175.7177734375	425.376953125	946.9016723632812	1171.719116210938	311.0971984863281	665.951904296875	1114.642211914062	378.2898254394531	728.3379516601562	1166.7158203125	322.9441223144531	735.4012451171875	1136.45703125	479.1407775878906	1386.056762695312	774.4017333984375	486.8123474121094	1320.811767578125	710.9492797851562	462.577880859375	1052.599731445312	676.0611572265625	504.0409545898438	1045.3779296875	759.9971923828125	340.9646911621094	831.4466552734375	729.0831909179688	375.2955017089844	812.5753784179688	662.689453125	433.3775329589844	986.0411987304688	668.9913940429688	317.2470703125	665.9508666992188	737.531982421875	306.8759460449219	732.1177978515625	718.5527954101562	355.0191345214844	729.4658813476562	667.739501953125	502.3355407714844	1602.944458007812	858.363525390625	331.6756896972656	1624.848876953125	975.9046020507812	342.2869873046875	1626.3935546875	875.60546875	514.0702514648438	1594.288696289062	1002.723327636719	461.7498168945312	919.6237182617188	1086.0615234375	353.2856750488281	951.77587890625	786.8339233398438	337.7845764160156	945.0677490234375	1028.0107421875	438.6537475585938	467.1256103515625	1093.636596679688	424.5906066894531	601.9384155273438	1096.437622070312	500.1681823730469	40.80084991455078	1099.623657226562	473.9055480957031	251.7303924560547	1110.428588867188	289.7149047851562	44.26435470581055	1054.015014648438	353.5112915039062	36.48124313354492	1007.146301269531	375.3957214355469	38.54563140869141	1120.59130859375	526.4196166992188	37.10203170776367	1028.997680664062	437.5015258789062	465.2809448242188	724.67626953125	490.3985290527344	51.33992767333984	705.4876708984375	432.2127380371094	348.4021911621094	723.4370727539062	300.9026184082031	43.19862365722656	766.0773315429688	360.1026916503906	37.49046325683594	803.5111694335938	386.0239868164062	39.12775039672852	689.1195678710938	542.884765625	48.21481323242188	750.8463745117188	460.3489685058594	926.1156616210938	740.441650390625	317.1119995117188	683.7276611328125	736.347900390625	nan	nan	nan	nan	nan	nan	
3	0.02	540.2503051757812	976.209716796875	850.0333862304688	543.1593627929688	974.9248657226562	978.31201171875	544.5011596679688	1024.587524414062	908.369140625	328.1760864257812	1223.415893554688	927.9495239257812	562.987060546875	1143.83056640625	918.8027954101562	534.6964111328125	1394.131103515625	937.3722534179688	376.5052490234375	1347.650390625	931.6509399414062	574.5250854492188	1252.820922851562	869.1716918945312	545.1693115234375	1355.171875	1038.8271484375	462.3514404296875	1377.412353515625	1096.006103515625	473.4262084960938	1254.065551757812	1160.477416992188	445.0582885742188	1050.390258789062	1166.706420898438	504.4197692871094	1035.911987304688	1108.971801757812	338.1260375976562	813.1343383789062	1120.655029296875	378.4809265136719	799.6458740234375	1175.742065429688	425.4004821777344	946.9188232421875	1171.772705078125	310.9919128417969	666.0010375976562	1114.865966796875	378.2612609863281	728.3579711914062	1166.846435546875	322.8812866210938	735.3928833007812	1136.514526367188	479.0943603515625	1386.048706054688	774.3861083984375	486.7390441894531	1320.8154296875	710.9287109375	462.4530639648438	1052.594116210938	676.0496215820312	503.9599609375	1045.355590820312	759.9808959960938	340.8712463378906	831.42919921875	729.1041259765625	375.2242736816406	812.5780639648438	662.6944580078125	433.271484375	986.0459594726562	668.99560546875	316.0235290527344	667.1719970703125	738.4979858398438	306.8348388671875	732.0403442382812	718.5733032226562	354.9373779296875	729.4450073242188	667.7564086914062	502.3680419921875	1602.908081054688	858.3125	331.731689453125	1624.875122070312	975.9124145507812	342.3086853027344	1626.405883789062	875.6279907226562	514.09814453125	1594.288330078125	1002.710205078125	461.6589965820312	919.5892944335938	1086.044189453125	353.2044067382812	951.7499389648438	786.8336791992188	337.7324829101562	945.070556640625	1028.013061523438	438.6177673339844	467.1270446777344	1093.644165039062	424.5686340332031	601.9325561523438	1096.429809570312	500.1590881347656	40.80713272094727	1099.618530273438	473.8125305175781	251.7321166992188	1110.330810546875	289.7084655761719	44.26100540161133	1054.013427734375	353.521484375	36.47158432006836	1007.141296386719	375.3860778808594	38.53992462158203	1120.593994140625	526.4140014648438	37.09849166870117	1028.993041992188	437.4679565429688	465.275146484375	724.6798706054688	490.4012451171875	51.34740447998047	705.490234375	432.1983947753906	348.4063110351562	723.432861328125	300.9035949707031	43.19991302490234	766.0711059570312	360.0896911621094	37.47874450683594	803.5125122070312	386.0218200683594	39.12307739257812	689.1181030273438	542.8912963867188	48.22158050537109	750.837890625	460.28857421875	926.121826171875	740.47265625	336.9981384277344	694.3416137695312	732.4113159179688	nan	nan	nan	nan	nan	nan	
4	0.03	540.1812744140625	976.2158813476562	850.0257568359375	543.0763549804688	974.9349365234375	978.2962646484375	544.4265747070312	1024.572143554688	908.3189697265625	328.1216430664062	1223.42333984375	927.9705200195312	562.9063720703125	1143.80029296875	918.8079833984375	534.6824951171875	1394.123046875	937.3683471679688	376.492919921875	1347.65673828125	931.662353515625	574.461669921875	1252.791870117188	869.141357421875	545.1741943359375	1355.165649414062	1038.7958984375	462.3663330078125	1377.40673828125	1096.00244140625	473.4520263671875	1254.072998046875	1160.474975585938	445.06298828125	1050.396240234375	1166.7265625	504.3934631347656	1035.892333984375	1108.944702148438	338.0591125488281	813.1755981445312	1120.7451171875	378.4936218261719	799.6513061523438	1175.772583007812	425.4223327636719	946.9371948242188	1171.837524414062	310.8924865722656	666.039794921875	1115.098876953125	378.2391052246094	728.3778686523438	1166.994018554688	322.8234558105469	735.3767700195312	1136.577026367188	479.0390930175781	1386.038696289062	774.3676147460938	486.6430358886719	1320.8134765625	710.9129028320312	462.31005859375	1052.588500976562	676.03564453125	503.8648681640625	1045.328247070312	759.9647827148438	340.7731323242188	831.4033203125	729.1265869140625	375.1432495117188	812.5804443359375	662.698486328125	433.1490478515625	986.0492553710938	669.0025024414062	315.0760803222656	668.1380004882812	739.1993408203125	306.7919616699219	731.9655151367188	718.59716796875	354.8623352050781	729.423095703125	667.7830810546875	502.3930969238281	1602.870239257812	858.2693481445312	331.7857666015625	1624.90380859375	975.9282836914062	342.3271179199219	1626.421142578125	875.663330078125	514.1284790039062	1594.287841796875	1002.697509765625	461.5486145019531	919.5543212890625	1086.030395507812	353.1124877929688	951.7217407226562	786.8347778320312	337.6694030761719	945.0733032226562	1028.017578125	438.5733947753906	467.1279296875	1093.653198242188	424.54150390625	601.9296875	1096.424072265625	500.1498413085938	40.81235504150391	1099.612915039062	473.7129821777344	251.7324981689453	1110.222778320312	289.7014770507812	44.25753021240234	1054.012329101562	353.5244140625	36.46446990966797	1007.139709472656	375.3792114257812	38.53847885131836	1120.591796875	526.4085693359375	37.09387969970703	1028.988159179688	437.431884765625	465.2668762207031	724.685302734375	490.402099609375	51.35500717163086	705.4888916015625	432.1792907714844	348.4078369140625	723.428466796875	300.9034729003906	43.20070648193359	766.0674438476562	360.0693969726562	37.46705627441406	803.5098876953125	386.0218200683594	39.12175750732422	689.1175537109375	542.8997192382812	48.22672653198242	750.8287963867188	460.2101440429688	926.120849609375	740.5140991210938	355.5984802246094	704.2781982421875	728.6952514648438	nan	nan	nan	nan	nan	nan	
